<?xml version="1.0" encoding="UTF-8"?>
<svg id="Layer_1" data-name="Layer 1" xmlns="http://www.w3.org/2000/svg" viewBox="0 0 119.71 113.52">
  <defs>
    <style>
      .cls-1, .cls-2 {
        stroke-linejoin: round;
      }

      .cls-1, .cls-2, .cls-3 {
        fill: none;
        stroke: currentColor;
        stroke-width: 4px;
      }

      .cls-1, .cls-3 {
        stroke-linecap: round;
      }

      .cls-3 {
        stroke-miterlimit: 10;
      }
    </style>
  </defs>
  <path class="cls-3" d="M95.44,45.44c13.55,6.76,22.26,17.3,22.26,29.13,0,20.41-25.9,36.95-57.85,36.95"/>
  <path class="cls-3" d="M23.03,103.07c-12.84-6.78-21.03-17.03-21.03-28.5,0-12.75,10.12-24,25.51-30.64"/>
  <path class="cls-3" d="M90.19,89.36c-.09.06-.18.11-.28.17-7.58,4.52-18.25,7.33-30.06,7.33-23.02,0-41.68-10.69-41.68-23.87,0-5.06,2.75-9.76,7.45-13.62"/>
  <path class="cls-3" d="M96.19,60.65c2.61,2.62,4.38,5.54,5.11,8.66"/>
  <path class="cls-2" d="M32.32,2s8.59,16.8,3.03,41.68c0,0-13.64,34.48,22.86,38.65,0,0,31.45,3.28,31.45-32.34,0,0-1.14-47.75-57.35-48Z"/>
  <path class="cls-1" d="M65.28,72.61s18.69-3.79,14.4-27.41"/>
</svg>