<?xml version="1.0" standalone="no"?>
<!DOCTYPE svg PUBLIC "-//W3C//DTD SVG 20010904//EN"
 "http://www.w3.org/TR/2001/REC-SVG-20010904/DTD/svg10.dtd">
<svg version="1.0" xmlns="http://www.w3.org/2000/svg"
 width="784.000000pt" height="1024.000000pt" viewBox="0 0 784.000000 1024.000000"
 preserveAspectRatio="xMidYMid meet">

<g transform="translate(0.000000,1024.000000) scale(0.100000,-0.100000)"
fill="#0c704c" stroke="none">
<path d="M3610 10140 c-357 -31 -711 -110 -1038 -230 -167 -62 -539 -245 -684
-337 -251 -158 -442 -309 -647 -508 -322 -314 -555 -629 -755 -1025 -219 -432
-343 -852 -398 -1345 -17 -158 -17 -632 0 -790 85 -765 371 -1452 854 -2047
122 -151 404 -431 553 -549 608 -483 1264 -754 2035 -840 152 -17 611 -17 770
-1 901 95 1705 476 2340 1112 633 632 1009 1420 1111 2330 20 175 17 641 -5
820 -93 764 -371 1423 -848 2012 -122 151 -404 431 -558 554 -583 465 -1235
740 -1975 830 -154 18 -602 27 -755 14z m485 -340 c885 -49 1678 -403 2300
-1025 576 -576 923 -1305 1010 -2120 19 -183 19 -526 0 -711 -64 -610 -283
-1188 -635 -1678 -590 -822 -1489 -1345 -2494 -1451 -188 -19 -524 -19 -712 0
-1137 120 -2135 774 -2699 1770 -736 1299 -552 2950 452 4060 642 709 1522
1120 2478 1158 39 2 81 4 95 5 14 1 106 -3 205 -8z"/>
<path d="M3635 9533 c-747 -67 -1459 -399 -1990 -928 -518 -515 -830 -1148
-931 -1890 -25 -180 -25 -606 -1 -790 34 -254 89 -481 173 -713 50 -137 132
-322 144 -322 13 0 302 116 435 175 299 132 693 340 968 512 1354 846 2327
2004 2898 3448 33 82 58 154 55 161 -7 17 -288 138 -441 189 -231 77 -481 131
-724 155 -95 9 -493 11 -586 3z"/>
<path d="M5596 8928 c-368 -937 -1062 -1997 -1760 -2687 l-146 -144 173 -172
c408 -406 888 -754 1322 -961 434 -206 953 -341 1370 -356 l89 -3 53 85 c67
108 200 376 248 500 79 202 130 383 166 587 27 152 37 494 19 685 -76 848
-458 1657 -1057 2239 -141 138 -399 349 -425 349 -3 0 -26 -55 -52 -122z"/>
<path d="M2985 5624 c-137 -104 -468 -323 -650 -430 -290 -170 -788 -410
-1092 -525 l-61 -23 25 -50 c42 -83 131 -221 207 -324 283 -378 697 -694 1181
-903 108 -46 398 -147 468 -163 l27 -6 0 1250 c0 687 -1 1250 -2 1250 -2 0
-48 -35 -103 -76z"/>
<path d="M4740 4064 l0 -846 38 7 c64 11 382 121 507 175 371 159 696 376 932
623 90 95 253 302 253 323 0 7 -47 13 -132 17 -387 18 -777 117 -1141 290
-122 58 -298 157 -389 218 -31 22 -59 39 -62 39 -4 0 -6 -381 -6 -846z"/>
<path d="M6315 1730 c-202 -43 -359 -166 -449 -352 -25 -51 -52 -120 -60 -153
-49 -194 -47 -475 5 -665 35 -130 83 -215 173 -306 135 -136 266 -186 486
-186 316 0 544 140 633 387 14 39 28 97 32 128 l7 57 -198 -2 -199 -3 -6 -53
c-10 -76 -52 -140 -114 -171 -41 -21 -66 -27 -145 -29 -89 -3 -99 -2 -150 25
-42 22 -62 41 -86 81 -50 83 -59 147 -59 422 0 225 2 251 22 316 28 87 70 147
125 176 37 20 58 23 143 23 92 0 104 -3 153 -30 66 -36 99 -88 114 -179 l11
-66 193 0 194 0 0 28 c0 16 -9 64 -20 106 -52 206 -194 354 -405 423 -68 22
-102 26 -220 29 -77 2 -158 -1 -180 -6z"/>
<path d="M690 905 l0 -815 200 0 200 0 2 489 3 490 275 -489 275 -489 198 -1
197 0 0 815 0 815 -195 0 -195 0 -2 -497 -3 -498 -280 497 -280 498 -197 0
-198 0 0 -815z"/>
<path d="M2300 904 l0 -815 348 3 347 3 80 28 c265 93 432 289 490 576 14 66
16 117 12 240 -6 183 -20 246 -84 381 -39 80 -59 108 -132 181 -121 121 -241
182 -411 209 -36 5 -197 10 -357 10 l-293 0 0 -816z m638 491 c110 -33 187
-126 219 -264 24 -103 24 -368 0 -458 -34 -129 -97 -212 -192 -254 -38 -17
-76 -23 -162 -27 l-113 -5 0 512 0 511 98 0 c59 0 119 -6 150 -15z"/>
<path d="M3600 1565 l0 -155 240 0 240 0 0 -660 0 -660 200 0 200 0 0 660 0
660 243 2 242 3 0 150 0 150 -682 3 -683 2 0 -155z"/>
<path d="M5157 1713 c-4 -3 -7 -370 -7 -815 l0 -808 200 0 200 0 0 815 0 815
-193 0 c-107 0 -197 -3 -200 -7z"/>
</g>
</svg>
